<svg id="visual" viewBox="0 0 900 600" width="900" height="600" xmlns="http://www.w3.org/2000/svg" xmlns:xlink="http://www.w3.org/1999/xlink" version="1.1"><path d="M0 85L30 100C60 115 120 145 180 160C240 175 300 175 360 160C420 145 480 115 540 123C600 131 660 177 720 200C780 223 840 223 870 223L900 223L900 0L870 0C840 0 780 0 720 0C660 0 600 0 540 0C480 0 420 0 360 0C300 0 240 0 180 0C120 0 60 0 30 0L0 0Z" fill="#903eb9"></path><path d="M0 169L30 177C60 185 120 201 180 210C240 219 300 221 360 220C420 219 480 215 540 226C600 237 660 263 720 274C780 285 840 281 870 279L900 277L900 221L870 221C840 221 780 221 720 198C660 175 600 129 540 121C480 113 420 143 360 158C300 173 240 173 180 158C120 143 60 113 30 98L0 83Z" fill="#742f9d"></path><path d="M0 385L30 403C60 421 120 457 180 470C240 483 300 473 360 461C420 449 480 435 540 437C600 439 660 457 720 470C780 483 840 491 870 495L900 499L900 275L870 277C840 279 780 283 720 272C660 261 600 235 540 224C480 213 420 217 360 218C300 219 240 217 180 208C120 199 60 183 30 175L0 167Z" fill="#5a2182"></path><path d="M0 511L30 518C60 525 120 539 180 547C240 555 300 557 360 553C420 549 480 539 540 535C600 531 660 533 720 539C780 545 840 555 870 560L900 565L900 497L870 493C840 489 780 481 720 468C660 455 600 437 540 435C480 433 420 447 360 459C300 471 240 481 180 468C120 455 60 419 30 401L0 383Z" fill="#411368"></path><path d="M0 601L30 601C60 601 120 601 180 601C240 601 300 601 360 601C420 601 480 601 540 601C600 601 660 601 720 601C780 601 840 601 870 601L900 601L900 563L870 558C840 553 780 543 720 537C660 531 600 529 540 533C480 537 420 547 360 551C300 555 240 553 180 545C120 537 60 523 30 516L0 509Z" fill="#2a054e"></path></svg>